<?xml version="1.0" encoding="utf-8"?>
<!-- Generator: Adobe Illustrator 26.0.3, SVG Export Plug-In . SVG Version: 6.00 Build 0)  -->
<svg version="1.0" id="katman_1" xmlns="http://www.w3.org/2000/svg" xmlns:xlink="http://www.w3.org/1999/xlink" x="0px" y="0px"
	 viewBox="0 0 800 600" style="enable-background:new 0 0 800 600;" xml:space="preserve">
<style type="text/css">
	.st0{fill-rule:evenodd;clip-rule:evenodd;fill:#18191E;}
</style>
<path class="st0" d="M455.7,259.3c-9.9,0-17.7,2.1-25.5,6.6c0-22.6,0-43.6,0.8-50.6l-48.1,8.6v4.1l4.9,0.8c6.6,1.2,8.6,4.9,9.9,13.6
	c1.2,17.3,0.8,108.2,0,123.4c12.8,2.9,26.3,4.9,39.9,4.9c37.8,0,60.5-23.5,60.5-60.5C498.5,280.7,479.9,259.3,455.7,259.3z
	 M439.2,362.5c-2.9,0-6.6,0-8.6-0.8c-0.8-9.9-1.2-51.8-0.8-88.9c4.1-1.2,7-2.1,10.7-2.1c15.6,0,24.3,18.5,24.3,41.1
	C464.7,340.7,454,362.5,439.2,362.5z"/>
<path class="st0" d="M203.5,218.1H78v6.6l7,0.8c9.5,1.2,12.8,7,14.4,20.6c2.1,25.5,1.2,72,0,94.2c-1.2,13.6-4.9,19.7-14.4,20.6
	l-7,1.2v5.8h80.6v-5.8l-8.6-1.2c-9.5-0.8-12.8-7-14.4-20.6c-0.8-9.5-1.2-24.3-1.2-42.8l17.3,0.8c10.7,0,15.6,8.6,17.7,20.6h6.6v-51
	h-6.6c-2.1,11.9-7,20.6-17.7,20.6l-17.3,0.8c0-24.3,0.8-46.9,1.2-60.5h25.1c19.3,0,29.2,11.9,36.2,33.3l7-2.1L203.5,218.1z"/>
<path class="st0" d="M243.8,258c35.8,0,53.5,24.3,53.5,56.4c0,30.4-19.7,56.4-55.5,56.4c-35.8,0-53.5-24.3-53.5-56.4
	C188.3,283.5,208.4,258,243.8,258z M241.7,265c-15.6,0-19.7,21.4-19.7,49c0,27.2,7,49,21.4,49c16.5,0,20.6-21.4,20.6-49
	C264,287.2,257,265,241.7,265z"/>
<path class="st0" d="M507.5,314.8c0-29.2,18.5-57.2,54.7-57.2c30,0,44,22.2,44,51.4H540c-0.8,26.3,11.9,45.7,37.8,45.7
	c11.5,0,17.3-2.9,24.3-7.8l2.9,3.7c-7,9.9-22.6,19.7-42.8,19.7C530.5,370.8,507.5,347.7,507.5,314.8z M540.4,301.6l33.3-0.8
	c0-14.4-2.1-35.8-14.4-35.8C547.4,265,541.2,285.2,540.4,301.6z"/>
<path class="st0" d="M691.4,263.8c-8.6-3.7-19.7-5.8-32.9-5.8c-26.3,0-42.8,15.6-42.8,34.1c0,18.5,11.9,26.3,29.2,32.1
	c17.7,6.6,22.6,11.5,22.6,19.7c0,8.6-6.6,16.5-17.7,16.5c-13.6,0-23.5-7.8-31.3-29.2l-4.9,1.2l0.8,31.3c8.6,3.7,24.3,6.6,37.8,6.6
	c28,0,45.7-14.4,45.7-36.2c0-14.8-7.8-23.5-26.3-30.4c-19.7-7.8-27.2-12.8-27.2-22.2c0-9.5,6.6-15.6,14.8-15.6
	c12.8,0,21.4,7.8,28,27.2l4.9-1.2L691.4,263.8z"/>
<path class="st0" d="M389.9,260.9c-11.9-7-33.3-3.7-44.8,22.2l0.8-25.1l-47.7,9.5v4.1l4.9,0.8c6.6,0.8,9.5,4.1,9.9,13.6
	c1.2,17.3,0.8,46.9,0,62.1c-0.8,8.6-3.7,12.8-9.9,13.6l-4.9,0.8v5.8h66.2v-5.8l-8.6-0.8c-7-0.8-9.5-4.9-9.9-13.6
	c-1.2-13.6-1.2-40.7-0.8-57.6c3.7-4.9,19.3-9.5,33.3,0L389.9,260.9z"/>
</svg>
